<svg width="26" height="70" viewBox="0 0 26 70" fill="none" xmlns="http://www.w3.org/2000/svg">
<path fill-rule="evenodd" clip-rule="evenodd" d="M12.6843 1.67407C13.9347 1.62271 14.7011 2.32754 14.9485 2.44481L15.2448 2.69855C15.9031 3.22844 16.3655 4.34062 16.3878 5.27946L16.4544 9.44422C16.48 11.0448 15.4448 12.5051 13.9361 13.0059L13.9367 13.0136C14.9141 13.3089 15.2918 13.8029 15.4233 13.8784C16.0836 14.4106 16.5429 15.5193 16.5662 16.4593L16.6317 20.6251C16.6637 22.6444 15.0502 24.3319 13.028 24.3747C11.9277 24.311 11.1652 24.1058 10.3656 23.3312C9.66963 22.6589 9.27019 21.7453 9.24438 20.7723L9.17577 16.5286C9.22574 15.4198 9.43924 15.0806 9.94692 14.2951L10.2007 13.9987L11.5921 13.0826C11.6258 13.0692 11.6614 13.0582 11.695 13.047L11.6943 13.0393C10.1807 12.5836 9.09845 11.1869 9.06501 9.58917L8.99943 5.42556C8.98351 4.45204 9.36019 3.50783 10.0222 2.81891C10.5508 2.16388 11.6655 1.69504 12.6031 1.67594L12.6843 1.67407ZM13.8895 10.0449L13.9029 10.9109L13.9779 10.8462L13.9802 10.8442L14.0474 10.7802L14.0486 10.7791L14.0637 10.7636L14.066 10.7615C14.2932 10.5261 14.4594 10.229 14.5342 9.90148C14.5488 9.8388 14.5603 9.77265 14.5677 9.70189C14.5745 9.63986 14.5786 9.56999 14.5774 9.49654L14.5779 9.46919L14.5115 5.33729C14.5065 4.9898 14.3984 4.66154 14.2184 4.38496C14.1812 4.32695 14.1416 4.27318 14.1038 4.22609C14.064 4.17668 14.0176 4.1269 13.971 4.0793L13.9659 4.07353L13.9534 4.06185C13.7179 3.83464 13.4209 3.66849 13.0934 3.59366C13.0307 3.57908 12.9656 3.56874 12.9035 3.56186L12.896 3.56032C12.8296 3.55319 12.7597 3.54915 12.6907 3.54844L12.6787 3.54884L12.6677 3.54821L12.6468 3.55028C12.3046 3.55894 11.983 3.66518 11.7109 3.84329L11.7075 3.84637C11.6516 3.88366 11.598 3.92108 11.5519 3.96003C11.5025 3.99989 11.4539 4.04527 11.4063 4.0918L11.3982 4.09899L11.3877 4.11043C11.1605 4.3459 10.9943 4.64295 10.9195 4.97049C10.9049 5.03317 10.8934 5.09931 10.8865 5.16134L10.8862 5.1679C10.8779 5.23532 10.875 5.30416 10.8753 5.37427L10.8748 5.40162L10.9413 9.53133C10.9463 9.87882 11.0544 10.2071 11.2344 10.4837C11.2717 10.5395 11.3102 10.5943 11.3501 10.6415C11.39 10.6909 11.4364 10.7407 11.4829 10.7883L11.4995 10.8046L11.5005 10.8057L11.5026 10.8081C11.5534 10.8581 11.6066 10.9039 11.6643 10.9478L11.6509 10.1003L11.6501 10.0762L11.6507 10.0467L11.651 10.0423C11.657 9.74911 11.7755 9.47997 11.9676 9.28409C12.1598 9.08602 12.4258 8.95685 12.7211 8.94438L12.7244 8.94348L12.7431 8.94346L12.7474 8.94371L12.7518 8.94396L12.754 8.94409L12.7573 8.94319L12.7716 8.94292C13.1977 8.9424 13.5703 9.18412 13.76 9.53902C13.7976 9.60911 13.8282 9.68536 13.8499 9.76547C13.8718 9.84122 13.8835 9.92185 13.8887 10.0021L13.8885 10.0065L13.8891 10.0142L13.89 10.0175L13.8908 10.0417L13.8895 10.0449ZM12.8765 16.8524C13.3523 16.8449 13.7355 16.4498 13.728 15.974L13.7071 14.653C13.9312 14.7536 14.1357 14.8925 14.311 15.0615C14.6936 15.433 14.9365 15.9476 14.9453 16.5155L15.0105 20.6484C15.0202 21.2174 14.7951 21.7389 14.4247 22.1205C14.0601 22.4969 13.5577 22.7373 13.0036 22.7545L12.9707 22.7548C12.4028 22.7635 11.8802 22.5394 11.4986 22.169C11.1201 21.8021 10.8778 21.2952 10.8642 20.7358L10.8643 20.715L10.7996 16.6314L10.7991 16.5821C10.7904 16.0142 11.0145 15.4916 11.3849 15.11C11.555 14.9337 11.7563 14.7876 11.9772 14.6799L11.9982 16.0009C12.0057 16.4767 12.4008 16.8599 12.8765 16.8524Z" fill="black"/>
<path fill-rule="evenodd" clip-rule="evenodd" d="M12.6843 23.6741C13.9347 23.6227 14.7011 24.3275 14.9485 24.4448L15.2448 24.6985C15.9031 25.2284 16.3655 26.3406 16.3878 27.2795L16.4544 31.4442C16.48 33.0448 15.4448 34.5051 13.9361 35.0059L13.9367 35.0136C14.9141 35.3089 15.2918 35.8029 15.4233 35.8784C16.0836 36.4106 16.5429 37.5193 16.5662 38.4593L16.6317 42.6251C16.6637 44.6444 15.0502 46.3319 13.028 46.3747C11.9277 46.311 11.1652 46.1058 10.3656 45.3312C9.66963 44.6589 9.27019 43.7453 9.24438 42.7723L9.17577 38.5286C9.22574 37.4198 9.43924 37.0806 9.94692 36.2951L10.2007 35.9987L11.5921 35.0826C11.6258 35.0692 11.6614 35.0582 11.695 35.047L11.6943 35.0393C10.1807 34.5836 9.09845 33.1869 9.06501 31.5892L8.99943 27.4256C8.98351 26.452 9.36019 25.5078 10.0222 24.8189C10.5508 24.1639 11.6655 23.695 12.6031 23.6759L12.6843 23.6741ZM13.8895 32.0449L13.9029 32.9109L13.9779 32.8462L13.9802 32.8442L14.0474 32.7802L14.0486 32.7791L14.0637 32.7636L14.066 32.7615C14.2932 32.5261 14.4594 32.229 14.5342 31.9015C14.5488 31.8388 14.5603 31.7727 14.5677 31.7019C14.5745 31.6399 14.5786 31.57 14.5774 31.4965L14.5779 31.4692L14.5115 27.3373C14.5065 26.9898 14.3984 26.6615 14.2184 26.385C14.1812 26.327 14.1416 26.2732 14.1038 26.2261C14.064 26.1767 14.0176 26.1269 13.971 26.0793L13.9659 26.0735L13.9534 26.0619C13.7179 25.8346 13.4209 25.6685 13.0934 25.5937C13.0307 25.5791 12.9656 25.5687 12.9035 25.5619L12.896 25.5603C12.8296 25.5532 12.7597 25.5491 12.6907 25.5484L12.6787 25.5488L12.6677 25.5482L12.6468 25.5503C12.3046 25.5589 11.983 25.6652 11.7109 25.8433L11.7075 25.8464C11.6516 25.8837 11.598 25.9211 11.5519 25.96C11.5025 25.9999 11.4539 26.0453 11.4063 26.0918L11.3982 26.099L11.3877 26.1104C11.1605 26.3459 10.9943 26.643 10.9195 26.9705C10.9049 27.0332 10.8934 27.0993 10.8865 27.1613L10.8862 27.1679C10.8779 27.2353 10.875 27.3042 10.8753 27.3743L10.8748 27.4016L10.9413 31.5313C10.9463 31.8788 11.0544 32.2071 11.2344 32.4837C11.2717 32.5395 11.3102 32.5943 11.3501 32.6415C11.39 32.6909 11.4364 32.7407 11.4829 32.7883L11.4995 32.8046L11.5005 32.8057L11.5026 32.8081C11.5534 32.8581 11.6066 32.9039 11.6643 32.9478L11.6509 32.1003L11.6501 32.0762L11.6507 32.0467L11.651 32.0423C11.657 31.7491 11.7755 31.48 11.9676 31.2841C12.1598 31.086 12.4258 30.9568 12.7211 30.9444L12.7244 30.9435L12.7431 30.9435L12.7474 30.9437L12.7518 30.944L12.754 30.9441L12.7573 30.9432L12.7716 30.9429C13.1977 30.9424 13.5703 31.1841 13.76 31.539C13.7976 31.6091 13.8282 31.6854 13.8499 31.7655C13.8718 31.8412 13.8835 31.9219 13.8887 32.0021L13.8885 32.0065L13.8891 32.0142L13.89 32.0175L13.8908 32.0417L13.8895 32.0449ZM12.8765 38.8524C13.3523 38.8449 13.7355 38.4498 13.728 37.974L13.7071 36.653C13.9312 36.7536 14.1357 36.8925 14.311 37.0615C14.6936 37.433 14.9365 37.9476 14.9453 38.5155L15.0105 42.6484C15.0202 43.2174 14.7951 43.7389 14.4247 44.1205C14.0601 44.4969 13.5577 44.7373 13.0036 44.7545L12.9707 44.7548C12.4028 44.7635 11.8802 44.5394 11.4986 44.169C11.1201 43.8021 10.8778 43.2952 10.8642 42.7358L10.8643 42.715L10.7996 38.6314L10.7991 38.5821C10.7904 38.0142 11.0145 37.4916 11.3849 37.11C11.555 36.9337 11.7563 36.7876 11.9772 36.6799L11.9982 38.0009C12.0057 38.4767 12.4008 38.8599 12.8765 38.8524Z" fill="black"/>
<path fill-rule="evenodd" clip-rule="evenodd" d="M12.6843 45.6741C13.9347 45.6227 14.7011 46.3275 14.9485 46.4448L15.2448 46.6985C15.9031 47.2284 16.3655 48.3406 16.3878 49.2795L16.4544 53.4442C16.48 55.0448 15.4448 56.5051 13.9361 57.0059L13.9367 57.0136C14.9141 57.3089 15.2918 57.8029 15.4233 57.8784C16.0836 58.4106 16.5429 59.5193 16.5662 60.4593L16.6317 64.6251C16.6637 66.6444 15.0502 68.3319 13.028 68.3747C11.9277 68.311 11.1652 68.1058 10.3656 67.3312C9.66963 66.6589 9.27019 65.7453 9.24438 64.7723L9.17577 60.5286C9.22574 59.4198 9.43924 59.0806 9.94692 58.2951L10.2007 57.9987L11.5921 57.0826C11.6258 57.0692 11.6614 57.0582 11.695 57.047L11.6943 57.0393C10.1807 56.5836 9.09845 55.1869 9.06501 53.5892L8.99943 49.4256C8.98351 48.452 9.36019 47.5078 10.0222 46.8189C10.5508 46.1639 11.6655 45.695 12.6031 45.6759L12.6843 45.6741ZM13.8895 54.0449L13.9029 54.9109L13.9779 54.8462L13.9802 54.8442L14.0474 54.7802L14.0486 54.7791L14.0637 54.7636L14.066 54.7615C14.2932 54.5261 14.4594 54.229 14.5342 53.9015C14.5488 53.8388 14.5603 53.7727 14.5677 53.7019C14.5745 53.6399 14.5786 53.57 14.5774 53.4965L14.5779 53.4692L14.5115 49.3373C14.5065 48.9898 14.3984 48.6615 14.2184 48.385C14.1812 48.327 14.1416 48.2732 14.1038 48.2261C14.064 48.1767 14.0176 48.1269 13.971 48.0793L13.9659 48.0735L13.9534 48.0619C13.7179 47.8346 13.4209 47.6685 13.0934 47.5937C13.0307 47.5791 12.9656 47.5687 12.9035 47.5619L12.896 47.5603C12.8296 47.5532 12.7597 47.5491 12.6907 47.5484L12.6787 47.5488L12.6677 47.5482L12.6468 47.5503C12.3046 47.5589 11.983 47.6652 11.7109 47.8433L11.7075 47.8464C11.6516 47.8837 11.598 47.9211 11.5519 47.96C11.5025 47.9999 11.4539 48.0453 11.4063 48.0918L11.3982 48.099L11.3877 48.1104C11.1605 48.3459 10.9943 48.643 10.9195 48.9705C10.9049 49.0332 10.8934 49.0993 10.8865 49.1613L10.8862 49.1679C10.8779 49.2353 10.875 49.3042 10.8753 49.3743L10.8748 49.4016L10.9413 53.5313C10.9463 53.8788 11.0544 54.2071 11.2344 54.4837C11.2717 54.5395 11.3102 54.5943 11.3501 54.6415C11.39 54.6909 11.4364 54.7407 11.4829 54.7883L11.4995 54.8046L11.5005 54.8057L11.5026 54.8081C11.5534 54.8581 11.6066 54.9039 11.6643 54.9478L11.6509 54.1003L11.6501 54.0762L11.6507 54.0467L11.651 54.0423C11.657 53.7491 11.7755 53.48 11.9676 53.2841C12.1598 53.086 12.4258 52.9568 12.7211 52.9444L12.7244 52.9435L12.7431 52.9435L12.7474 52.9437L12.7518 52.944L12.754 52.9441L12.7573 52.9432L12.7716 52.9429C13.1977 52.9424 13.5703 53.1841 13.76 53.539C13.7976 53.6091 13.8282 53.6854 13.8499 53.7655C13.8718 53.8412 13.8835 53.9219 13.8887 54.0021L13.8885 54.0065L13.8891 54.0142L13.89 54.0175L13.8908 54.0417L13.8895 54.0449ZM12.8765 60.8524C13.3523 60.8449 13.7355 60.4498 13.728 59.974L13.7071 58.653C13.9312 58.7536 14.1357 58.8925 14.311 59.0615C14.6936 59.433 14.9365 59.9476 14.9453 60.5155L15.0105 64.6484C15.0202 65.2174 14.7951 65.7389 14.4247 66.1205C14.0601 66.4969 13.5577 66.7373 13.0036 66.7545L12.9707 66.7548C12.4028 66.7635 11.8802 66.5394 11.4986 66.169C11.1201 65.8021 10.8778 65.2952 10.8642 64.7358L10.8643 64.715L10.7996 60.6314L10.7991 60.5821C10.7904 60.0142 11.0145 59.4916 11.3849 59.11C11.555 58.9337 11.7563 58.7876 11.9772 58.6799L11.9982 60.0009C12.0057 60.4767 12.4008 60.8599 12.8765 60.8524Z" fill="black"/>
</svg>
